<svg width="24" height="24" viewBox="0 0 24 24" fill="none" xmlns="http://www.w3.org/2000/svg">
<mask id="path-1-inside-1_368_49" fill="white">
<path d="M17.0625 10.5C17.0625 10.6492 17.0032 10.7923 16.8977 10.8977C16.7923 11.0032 16.6492 11.0625 16.5 11.0625H9C8.85082 11.0625 8.70774 11.0032 8.60225 10.8977C8.49676 10.7923 8.4375 10.6492 8.4375 10.5C8.4375 10.3508 8.49676 10.2077 8.60225 10.1023C8.70774 9.99676 8.85082 9.9375 9 9.9375H16.5C16.6492 9.9375 16.7923 9.99676 16.8977 10.1023C17.0032 10.2077 17.0625 10.3508 17.0625 10.5ZM16.5 12.9375H9C8.85082 12.9375 8.70774 12.9968 8.60225 13.1023C8.49676 13.2077 8.4375 13.3508 8.4375 13.5C8.4375 13.6492 8.49676 13.7923 8.60225 13.8977C8.70774 14.0032 8.85082 14.0625 9 14.0625H16.5C16.6492 14.0625 16.7923 14.0032 16.8977 13.8977C17.0032 13.7923 17.0625 13.6492 17.0625 13.5C17.0625 13.3508 17.0032 13.2077 16.8977 13.1023C16.7923 12.9968 16.6492 12.9375 16.5 12.9375ZM21.5625 6V17.25C21.5625 17.797 21.3452 18.3216 20.9584 18.7084C20.5716 19.0952 20.047 19.3125 19.5 19.3125H3C2.45445 19.3125 1.93112 19.0964 1.54457 18.7114C1.15802 18.3264 0.939732 17.804 0.9375 17.2584V8.25C0.9375 8.10082 0.996763 7.95774 1.10225 7.85225C1.20774 7.74676 1.35082 7.6875 1.5 7.6875C1.64918 7.6875 1.79226 7.74676 1.89775 7.85225C2.00324 7.95774 2.0625 8.10082 2.0625 8.25V17.25C2.0625 17.4986 2.16127 17.7371 2.33709 17.9129C2.5129 18.0887 2.75136 18.1875 3 18.1875C3.24864 18.1875 3.4871 18.0887 3.66291 17.9129C3.83873 17.7371 3.9375 17.4986 3.9375 17.25V6C3.9375 5.6519 4.07578 5.31806 4.32192 5.07192C4.56806 4.82578 4.9019 4.6875 5.25 4.6875H20.25C20.5981 4.6875 20.9319 4.82578 21.1781 5.07192C21.4242 5.31806 21.5625 5.6519 21.5625 6ZM20.4375 6C20.4375 5.95027 20.4177 5.90258 20.3826 5.86742C20.3474 5.83225 20.2997 5.8125 20.25 5.8125H5.25C5.20027 5.8125 5.15258 5.83225 5.11742 5.86742C5.08225 5.90258 5.0625 5.95027 5.0625 6V17.25C5.0629 17.576 4.98544 17.8974 4.83656 18.1875H19.5C19.7486 18.1875 19.9871 18.0887 20.1629 17.9129C20.3387 17.7371 20.4375 17.4986 20.4375 17.25V6Z"/>
</mask>
<path d="M17.0625 10.5C17.0625 10.6492 17.0032 10.7923 16.8977 10.8977C16.7923 11.0032 16.6492 11.0625 16.5 11.0625H9C8.85082 11.0625 8.70774 11.0032 8.60225 10.8977C8.49676 10.7923 8.4375 10.6492 8.4375 10.5C8.4375 10.3508 8.49676 10.2077 8.60225 10.1023C8.70774 9.99676 8.85082 9.9375 9 9.9375H16.5C16.6492 9.9375 16.7923 9.99676 16.8977 10.1023C17.0032 10.2077 17.0625 10.3508 17.0625 10.5ZM16.5 12.9375H9C8.85082 12.9375 8.70774 12.9968 8.60225 13.1023C8.49676 13.2077 8.4375 13.3508 8.4375 13.5C8.4375 13.6492 8.49676 13.7923 8.60225 13.8977C8.70774 14.0032 8.85082 14.0625 9 14.0625H16.5C16.6492 14.0625 16.7923 14.0032 16.8977 13.8977C17.0032 13.7923 17.0625 13.6492 17.0625 13.5C17.0625 13.3508 17.0032 13.2077 16.8977 13.1023C16.7923 12.9968 16.6492 12.9375 16.5 12.9375ZM21.5625 6V17.25C21.5625 17.797 21.3452 18.3216 20.9584 18.7084C20.5716 19.0952 20.047 19.3125 19.5 19.3125H3C2.45445 19.3125 1.93112 19.0964 1.54457 18.7114C1.15802 18.3264 0.939732 17.804 0.9375 17.2584V8.25C0.9375 8.10082 0.996763 7.95774 1.10225 7.85225C1.20774 7.74676 1.35082 7.6875 1.5 7.6875C1.64918 7.6875 1.79226 7.74676 1.89775 7.85225C2.00324 7.95774 2.0625 8.10082 2.0625 8.25V17.25C2.0625 17.4986 2.16127 17.7371 2.33709 17.9129C2.5129 18.0887 2.75136 18.1875 3 18.1875C3.24864 18.1875 3.4871 18.0887 3.66291 17.9129C3.83873 17.7371 3.9375 17.4986 3.9375 17.25V6C3.9375 5.6519 4.07578 5.31806 4.32192 5.07192C4.56806 4.82578 4.9019 4.6875 5.25 4.6875H20.25C20.5981 4.6875 20.9319 4.82578 21.1781 5.07192C21.4242 5.31806 21.5625 5.6519 21.5625 6ZM20.4375 6C20.4375 5.95027 20.4177 5.90258 20.3826 5.86742C20.3474 5.83225 20.2997 5.8125 20.25 5.8125H5.25C5.20027 5.8125 5.15258 5.83225 5.11742 5.86742C5.08225 5.90258 5.0625 5.95027 5.0625 6V17.25C5.0629 17.576 4.98544 17.8974 4.83656 18.1875H19.5C19.7486 18.1875 19.9871 18.0887 20.1629 17.9129C20.3387 17.7371 20.4375 17.4986 20.4375 17.25V6Z" fill="#2D7588"/>
<path d="M9 11.0625V16.0625V11.0625ZM16.5 9.9375V14.9375V9.9375ZM3 19.3125V14.3125H2.99996L3 19.3125ZM0.9375 17.2584H-4.0625V17.2687L-4.06246 17.2789L0.9375 17.2584ZM2.0625 8.25H7.0625H2.0625ZM2.0625 17.25H-2.9375H2.0625ZM3.9375 6H-1.0625H3.9375ZM5.25 4.6875V-0.3125V4.6875ZM5.0625 17.25H0.0624962L0.0625038 17.2562L5.0625 17.25ZM4.83656 18.1875L0.388306 15.9043L-3.35002 23.1875H4.83656V18.1875ZM19.5 18.1875V13.1875V18.1875ZM12.0625 10.5C12.0625 9.32311 12.53 8.19441 13.3622 7.36221L20.4333 14.4333C21.4765 13.3901 22.0625 11.9753 22.0625 10.5H12.0625ZM13.3622 7.36221C14.1944 6.53003 15.3231 6.0625 16.5 6.0625V16.0625C17.9753 16.0625 19.3901 15.4764 20.4333 14.4333L13.3622 7.36221ZM16.5 6.0625H9V16.0625H16.5V6.0625ZM9 6.0625C10.1769 6.0625 11.3056 6.53003 12.1378 7.36221L5.06672 14.4333C6.10988 15.4764 7.52472 16.0625 9 16.0625V6.0625ZM12.1378 7.36221C12.97 8.19439 13.4375 9.32308 13.4375 10.5H3.4375C3.4375 11.9753 4.02356 13.3901 5.06672 14.4333L12.1378 7.36221ZM13.4375 10.5C13.4375 11.6769 12.97 12.8056 12.1378 13.6378L5.06672 6.56672C4.02356 7.60988 3.4375 9.02472 3.4375 10.5H13.4375ZM12.1378 13.6378C11.3056 14.47 10.1769 14.9375 9 14.9375V4.9375C7.52472 4.9375 6.10988 5.52356 5.06672 6.56672L12.1378 13.6378ZM9 14.9375H16.5V4.9375H9V14.9375ZM16.5 14.9375C15.3231 14.9375 14.1944 14.47 13.3622 13.6378L20.4333 6.56672C19.3901 5.52355 17.9753 4.9375 16.5 4.9375V14.9375ZM13.3622 13.6378C12.53 12.8056 12.0625 11.6769 12.0625 10.5H22.0625C22.0625 9.02474 21.4765 7.60989 20.4333 6.56672L13.3622 13.6378ZM16.5 7.9375H9V17.9375H16.5V7.9375ZM9 7.9375C7.52474 7.9375 6.10989 8.52354 5.06672 9.56672L12.1378 16.6378C11.3056 17.47 10.1769 17.9375 9 17.9375V7.9375ZM5.06672 9.56672C4.02355 10.6099 3.4375 12.0247 3.4375 13.5H13.4375C13.4375 14.6769 12.97 15.8056 12.1378 16.6378L5.06672 9.56672ZM3.4375 13.5C3.4375 14.9753 4.02355 16.3901 5.06672 17.4333L12.1378 10.3622C12.97 11.1944 13.4375 12.3231 13.4375 13.5H3.4375ZM5.06672 17.4333C6.10989 18.4765 7.52474 19.0625 9 19.0625V9.0625C10.1769 9.0625 11.3056 9.53002 12.1378 10.3622L5.06672 17.4333ZM9 19.0625H16.5V9.0625H9V19.0625ZM16.5 19.0625C17.9753 19.0625 19.3901 18.4765 20.4333 17.4333L13.3622 10.3622C14.1944 9.53001 15.3231 9.0625 16.5 9.0625V19.0625ZM20.4333 17.4333C21.4765 16.3901 22.0625 14.9753 22.0625 13.5H12.0625C12.0625 12.3231 12.53 11.1944 13.3622 10.3622L20.4333 17.4333ZM22.0625 13.5C22.0625 12.0247 21.4765 10.6099 20.4333 9.56672L13.3622 16.6378C12.53 15.8056 12.0625 14.6769 12.0625 13.5H22.0625ZM20.4333 9.56672C19.3901 8.52354 17.9753 7.9375 16.5 7.9375V17.9375C15.3231 17.9375 14.1944 17.47 13.3622 16.6378L20.4333 9.56672ZM16.5625 6V17.25H26.5625V6H16.5625ZM16.5625 17.25C16.5625 16.4709 16.872 15.7238 17.4229 15.1729L24.4939 22.2439C25.8184 20.9195 26.5625 19.1231 26.5625 17.25H16.5625ZM17.4229 15.1729C17.9738 14.622 18.7209 14.3125 19.5 14.3125V24.3125C21.3731 24.3125 23.1695 23.5684 24.4939 22.2439L17.4229 15.1729ZM19.5 14.3125H3V24.3125H19.5V14.3125ZM2.99996 14.3125C3.77696 14.3125 4.52231 14.6203 5.07285 15.1686L-1.98371 22.2542C-0.660067 23.5724 1.13194 24.3125 3.00004 24.3125L2.99996 14.3125ZM5.07285 15.1686C5.62339 15.7169 5.93428 16.461 5.93746 17.238L-4.06246 17.2789C-4.05482 19.147 -3.30736 20.9359 -1.98371 22.2542L5.07285 15.1686ZM5.9375 17.2584V8.25H-4.0625V17.2584H5.9375ZM5.9375 8.25C5.9375 9.4269 5.46998 10.5556 4.63779 11.3878L-2.43328 4.31672C-3.47645 5.35989 -4.0625 6.77473 -4.0625 8.25H5.9375ZM4.63779 11.3878C3.8056 12.22 2.6769 12.6875 1.5 12.6875V2.6875C0.0247266 2.6875 -1.39012 3.27355 -2.43328 4.31672L4.63779 11.3878ZM1.5 12.6875C0.323096 12.6875 -0.805598 12.22 -1.63779 11.3878L5.43328 4.31672C4.39011 3.27355 2.97527 2.6875 1.5 2.6875V12.6875ZM-1.63779 11.3878C-2.46998 10.5556 -2.9375 9.4269 -2.9375 8.25H7.0625C7.0625 6.77473 6.47645 5.35989 5.43328 4.31672L-1.63779 11.3878ZM-2.9375 8.25V17.25H7.0625V8.25H-2.9375ZM-2.9375 17.25C-2.9375 18.8247 -2.31195 20.3349 -1.19845 21.4484L5.87262 14.3774C6.63449 15.1392 7.0625 16.1726 7.0625 17.25H-2.9375ZM-1.19845 21.4484C-0.0849423 22.562 1.42529 23.1875 3 23.1875V13.1875C4.07743 13.1875 5.11075 13.6155 5.87262 14.3774L-1.19845 21.4484ZM3 23.1875C4.57471 23.1875 6.08494 22.562 7.19845 21.4484L0.127379 14.3774C0.889252 13.6155 1.92257 13.1875 3 13.1875V23.1875ZM7.19845 21.4484C8.31195 20.3349 8.9375 18.8247 8.9375 17.25H-1.0625C-1.0625 16.1726 -0.634491 15.1392 0.127379 14.3774L7.19845 21.4484ZM8.9375 17.25V6H-1.0625V17.25H8.9375ZM8.9375 6C8.9375 6.97799 8.549 7.91592 7.85746 8.60746L0.786388 1.53639C-0.397435 2.72021 -1.0625 4.32582 -1.0625 6H8.9375ZM7.85746 8.60746C7.16592 9.299 6.22799 9.6875 5.25 9.6875V-0.3125C3.57582 -0.3125 1.97021 0.352565 0.786388 1.53639L7.85746 8.60746ZM5.25 9.6875H20.25V-0.3125H5.25V9.6875ZM20.25 9.6875C19.272 9.6875 18.3341 9.299 17.6425 8.60746L24.7136 1.53639C23.5298 0.352565 21.9242 -0.3125 20.25 -0.3125V9.6875ZM17.6425 8.60746C16.951 7.91592 16.5625 6.97799 16.5625 6H26.5625C26.5625 4.32582 25.8974 2.72021 24.7136 1.53639L17.6425 8.60746ZM25.4375 6C25.4375 4.62427 24.891 3.30478 23.9181 2.33188L16.847 9.40295C15.9445 8.50038 15.4375 7.27628 15.4375 6H25.4375ZM23.9181 2.33188C22.9452 1.35901 21.6258 0.8125 20.25 0.8125V10.8125C18.9737 10.8125 17.7496 10.3055 16.847 9.40295L23.9181 2.33188ZM20.25 0.8125H5.25V10.8125H20.25V0.8125ZM5.25 0.8125C3.8742 0.8125 2.55474 1.35903 1.58188 2.33188L8.65295 9.40295C7.75042 10.3055 6.52634 10.8125 5.25 10.8125V0.8125ZM1.58188 2.33188C0.609029 3.30474 0.0625 4.6242 0.0625 6H10.0625C10.0625 7.27634 9.55548 8.50042 8.65295 9.40295L1.58188 2.33188ZM0.0625 6V17.25H10.0625V6H0.0625ZM0.0625038 17.2562C0.0619233 16.786 0.173621 16.3226 0.388306 15.9043L9.28482 20.4707C9.79726 19.4723 10.0639 18.366 10.0625 17.2438L0.0625038 17.2562ZM4.83656 23.1875H19.5V13.1875H4.83656V23.1875ZM19.5 23.1875C21.0747 23.1875 22.5849 22.562 23.6984 21.4484L16.6274 14.3774C17.3893 13.6155 18.4226 13.1875 19.5 13.1875V23.1875ZM23.6984 21.4484C24.812 20.3349 25.4375 18.8247 25.4375 17.25H15.4375C15.4375 16.1726 15.8655 15.1393 16.6274 14.3774L23.6984 21.4484ZM25.4375 17.25V6H15.4375V17.25H25.4375Z" fill="#2D7588" mask="url(#path-1-inside-1_368_49)"/>
</svg>
