<svg width="181" height="101" viewBox="0 0 181 101" fill="none" xmlns="http://www.w3.org/2000/svg">
<g clip-path="url(#clip0_92_1015)">
<path d="M173.767 97.3748C173.767 95.3822 175.395 93.7497 177.383 93.7497C179.371 93.7497 181 95.3822 181 97.3748C181 99.3675 179.371 101 177.383 101C175.395 101 173.767 99.3675 173.767 97.3748Z" fill="#005264" fill-opacity="0.15"/>
<path d="M144.81 97.3748C144.81 95.3822 146.438 93.7497 148.426 93.7497C150.414 93.7497 152.043 95.3822 152.043 97.3748C152.043 99.3675 150.414 101 148.426 101C146.438 101 144.81 99.3675 144.81 97.3748Z" fill="#005264" fill-opacity="0.15"/>
<path d="M115.853 97.3748C115.853 95.3822 117.481 93.7497 119.469 93.7497C121.457 93.7497 123.086 95.3822 123.086 97.3748C123.086 99.3675 121.457 101 119.469 101C117.457 101 115.853 99.3675 115.853 97.3748Z" fill="#005264" fill-opacity="0.15"/>
<path d="M86.8955 97.3748C86.8955 95.3822 88.5242 93.7497 90.5122 93.7497C92.5001 93.7497 94.1288 95.3822 94.1288 97.3748C94.1288 99.3675 92.5001 101 90.5122 101C88.5003 101 86.8955 99.3675 86.8955 97.3748Z" fill="#005264" fill-opacity="0.15"/>
<path d="M57.9141 97.3748C57.9141 95.3822 59.5428 93.7497 61.5307 93.7497C63.5187 93.7497 65.1474 95.3822 65.1474 97.3748C65.1474 99.3675 63.5187 101 61.5307 101C59.5428 101 57.9141 99.3675 57.9141 97.3748Z" fill="#005264" fill-opacity="0.15"/>
<path d="M28.957 97.3748C28.957 95.3822 30.5857 93.7497 32.5737 93.7497C34.5616 93.7497 36.1903 95.3822 36.1903 97.3748C36.1903 99.3675 34.5616 101 32.5737 101C30.5857 101 28.957 99.3675 28.957 97.3748Z" fill="#005264" fill-opacity="0.15"/>
<path d="M0 97.3748C0 95.3822 1.62869 93.7497 3.61665 93.7497C5.60461 93.7497 7.23329 95.3822 7.23329 97.3748C7.23329 99.3675 5.60461 101 3.61665 101C1.62869 101 0 99.3675 0 97.3748Z" fill="#005264" fill-opacity="0.15"/>
<path d="M173.767 78.6249C173.767 76.6323 175.395 74.9998 177.383 74.9998C179.371 74.9998 181 76.6323 181 78.6249C181 80.6175 179.371 82.25 177.383 82.25C175.395 82.25 173.767 80.6175 173.767 78.6249Z" fill="#005264" fill-opacity="0.15"/>
<path d="M148.426 82.25C150.424 82.25 152.043 80.627 152.043 78.6249C152.043 76.6228 150.424 74.9998 148.426 74.9998C146.429 74.9998 144.81 76.6228 144.81 78.6249C144.81 80.627 146.429 82.25 148.426 82.25Z" fill="#005264" fill-opacity="0.15"/>
<path d="M115.853 78.6249C115.853 76.6323 117.481 74.9998 119.469 74.9998C121.457 74.9998 123.086 76.6323 123.086 78.6249C123.086 80.6175 121.457 82.25 119.469 82.25C117.457 82.25 115.853 80.6175 115.853 78.6249Z" fill="#005264" fill-opacity="0.15"/>
<path d="M90.5122 82.25C92.5096 82.25 94.1288 80.627 94.1288 78.6249C94.1288 76.6228 92.5096 74.9998 90.5122 74.9998C88.5147 74.9998 86.8955 76.6228 86.8955 78.6249C86.8955 80.627 88.5147 82.25 90.5122 82.25Z" fill="#005264" fill-opacity="0.15"/>
<path d="M61.5546 82.25C63.5521 82.25 65.1713 80.627 65.1713 78.6249C65.1713 76.6228 63.5521 74.9998 61.5546 74.9998C59.5572 74.9998 57.938 76.6228 57.938 78.6249C57.938 80.627 59.5572 82.25 61.5546 82.25Z" fill="#005264" fill-opacity="0.15"/>
<path d="M32.5737 82.25C34.5711 82.25 36.1903 80.627 36.1903 78.6249C36.1903 76.6228 34.5711 74.9998 32.5737 74.9998C30.5763 74.9998 28.957 76.6228 28.957 78.6249C28.957 80.627 30.5763 82.25 32.5737 82.25Z" fill="#005264" fill-opacity="0.15"/>
<path d="M3.61665 82.25C5.61407 82.25 7.23329 80.627 7.23329 78.6249C7.23329 76.6228 5.61407 74.9998 3.61665 74.9998C1.61923 74.9998 0 76.6228 0 78.6249C0 80.627 1.61923 82.25 3.61665 82.25Z" fill="#005264" fill-opacity="0.15"/>
<path d="M173.767 59.875C173.767 57.8823 175.395 56.2498 177.383 56.2498C179.371 56.2498 181 57.8823 181 59.875C181 61.8676 179.371 63.5001 177.383 63.5001C175.395 63.5001 173.767 61.8676 173.767 59.875Z" fill="#005264" fill-opacity="0.15"/>
<path d="M148.426 63.5001C150.424 63.5001 152.043 61.8771 152.043 59.875C152.043 57.8729 150.424 56.2498 148.426 56.2498C146.429 56.2498 144.81 57.8729 144.81 59.875C144.81 61.8771 146.429 63.5001 148.426 63.5001Z" fill="#005264" fill-opacity="0.15"/>
<path d="M115.853 59.875C115.853 57.8823 117.481 56.2498 119.469 56.2498C121.457 56.2498 123.086 57.8823 123.086 59.875C123.086 61.8676 121.457 63.5001 119.469 63.5001C117.457 63.5001 115.853 61.8676 115.853 59.875Z" fill="#005264" fill-opacity="0.15"/>
<path d="M90.5122 63.5001C92.5096 63.5001 94.1288 61.8771 94.1288 59.875C94.1288 57.8729 92.5096 56.2498 90.5122 56.2498C88.5147 56.2498 86.8955 57.8729 86.8955 59.875C86.8955 61.8771 88.5147 63.5001 90.5122 63.5001Z" fill="#005264" fill-opacity="0.15"/>
<path d="M61.5546 63.5001C63.5521 63.5001 65.1713 61.8771 65.1713 59.875C65.1713 57.8729 63.5521 56.2498 61.5546 56.2498C59.5572 56.2498 57.938 57.8729 57.938 59.875C57.938 61.8771 59.5572 63.5001 61.5546 63.5001Z" fill="#005264" fill-opacity="0.15"/>
<path d="M32.5737 63.5001C34.5711 63.5001 36.1903 61.8771 36.1903 59.875C36.1903 57.8729 34.5711 56.2498 32.5737 56.2498C30.5763 56.2498 28.957 57.8729 28.957 59.875C28.957 61.8771 30.5763 63.5001 32.5737 63.5001Z" fill="#005264" fill-opacity="0.15"/>
<path d="M3.61665 63.5001C5.61407 63.5001 7.23329 61.8771 7.23329 59.875C7.23329 57.8729 5.61407 56.2498 3.61665 56.2498C1.61923 56.2498 0 57.8729 0 59.875C0 61.8771 1.61923 63.5001 3.61665 63.5001Z" fill="#005264" fill-opacity="0.15"/>
<path d="M173.767 41.125C173.767 39.1324 175.395 37.4999 177.383 37.4999C179.371 37.4999 181 39.1324 181 41.125C181 43.1177 179.371 44.7502 177.383 44.7502C175.395 44.7502 173.767 43.1177 173.767 41.125Z" fill="#005264" fill-opacity="0.15"/>
<path d="M148.426 44.7502C150.424 44.7502 152.043 43.1271 152.043 41.125C152.043 39.1229 150.424 37.4999 148.426 37.4999C146.429 37.4999 144.81 39.1229 144.81 41.125C144.81 43.1271 146.429 44.7502 148.426 44.7502Z" fill="#005264" fill-opacity="0.15"/>
<path d="M115.853 41.125C115.853 39.1324 117.481 37.4999 119.469 37.4999C121.457 37.4999 123.086 39.1324 123.086 41.125C123.086 43.1177 121.457 44.7502 119.469 44.7502C117.457 44.7502 115.853 43.1177 115.853 41.125Z" fill="#005264" fill-opacity="0.15"/>
<path d="M90.5122 44.7502C92.5096 44.7502 94.1288 43.1271 94.1288 41.125C94.1288 39.1229 92.5096 37.4999 90.5122 37.4999C88.5147 37.4999 86.8955 39.1229 86.8955 41.125C86.8955 43.1271 88.5147 44.7502 90.5122 44.7502Z" fill="#005264" fill-opacity="0.15"/>
<path d="M61.5546 44.7502C63.5521 44.7502 65.1713 43.1271 65.1713 41.125C65.1713 39.1229 63.5521 37.4999 61.5546 37.4999C59.5572 37.4999 57.938 39.1229 57.938 41.125C57.938 43.1271 59.5572 44.7502 61.5546 44.7502Z" fill="#005264" fill-opacity="0.15"/>
<path d="M32.5737 44.7502C34.5711 44.7502 36.1903 43.1271 36.1903 41.125C36.1903 39.1229 34.5711 37.4999 32.5737 37.4999C30.5763 37.4999 28.957 39.1229 28.957 41.125C28.957 43.1271 30.5763 44.7502 32.5737 44.7502Z" fill="#005264" fill-opacity="0.15"/>
<path d="M3.61665 44.7502C5.61407 44.7502 7.23329 43.1271 7.23329 41.125C7.23329 39.1229 5.61407 37.4999 3.61665 37.4999C1.61923 37.4999 0 39.1229 0 41.125C0 43.1271 1.61923 44.7502 3.61665 44.7502Z" fill="#005264" fill-opacity="0.15"/>
<path d="M173.767 22.3751C173.767 20.3825 175.395 18.7499 177.383 18.7499C179.371 18.7499 181 20.3825 181 22.3751C181 24.3677 179.371 26.0002 177.383 26.0002C175.395 26.0002 173.767 24.3917 173.767 22.3751Z" fill="#005264" fill-opacity="0.15"/>
<path d="M148.426 26.0002C150.424 26.0002 152.043 24.3772 152.043 22.3751C152.043 20.373 150.424 18.7499 148.426 18.7499C146.429 18.7499 144.81 20.373 144.81 22.3751C144.81 24.3772 146.429 26.0002 148.426 26.0002Z" fill="#005264" fill-opacity="0.15"/>
<path d="M115.853 22.3751C115.853 20.3825 117.481 18.7499 119.469 18.7499C121.457 18.7499 123.086 20.3825 123.086 22.3751C123.086 24.3677 121.457 26.0002 119.469 26.0002C117.457 26.0002 115.853 24.3917 115.853 22.3751Z" fill="#005264" fill-opacity="0.15"/>
<path d="M90.5122 26.0002C92.5096 26.0002 94.1288 24.3772 94.1288 22.3751C94.1288 20.373 92.5096 18.7499 90.5122 18.7499C88.5147 18.7499 86.8955 20.373 86.8955 22.3751C86.8955 24.3772 88.5147 26.0002 90.5122 26.0002Z" fill="#005264" fill-opacity="0.15"/>
<path d="M61.5546 26.0002C63.5521 26.0002 65.1713 24.3772 65.1713 22.3751C65.1713 20.373 63.5521 18.7499 61.5546 18.7499C59.5572 18.7499 57.938 20.373 57.938 22.3751C57.938 24.3772 59.5572 26.0002 61.5546 26.0002Z" fill="#005264" fill-opacity="0.15"/>
<path d="M32.5737 26.0002C34.5711 26.0002 36.1903 24.3772 36.1903 22.3751C36.1903 20.373 34.5711 18.7499 32.5737 18.7499C30.5763 18.7499 28.957 20.373 28.957 22.3751C28.957 24.3772 30.5763 26.0002 32.5737 26.0002Z" fill="#005264" fill-opacity="0.15"/>
<path d="M3.61665 26.0002C5.61407 26.0002 7.23329 24.3772 7.23329 22.3751C7.23329 20.373 5.61407 18.7499 3.61665 18.7499C1.61923 18.7499 0 20.373 0 22.3751C0 24.3772 1.61923 26.0002 3.61665 26.0002Z" fill="#005264" fill-opacity="0.15"/>
<path d="M173.767 3.62515C173.767 1.63252 175.395 0 177.383 0C179.371 0 181 1.63252 181 3.62515C181 5.61778 179.371 7.2503 177.383 7.2503C175.395 7.2503 173.767 5.64179 173.767 3.62515Z" fill="#005264" fill-opacity="0.15"/>
<path d="M144.81 3.62515C144.81 1.63252 146.438 0 148.426 0C150.414 0 152.043 1.63252 152.043 3.62515C152.043 5.61778 150.414 7.2503 148.426 7.2503C146.438 7.2503 144.81 5.64179 144.81 3.62515Z" fill="#005264" fill-opacity="0.15"/>
<path d="M115.853 3.62515C115.853 1.63252 117.481 0 119.469 0C121.457 0 123.086 1.63252 123.086 3.62515C123.086 5.61778 121.457 7.2503 119.469 7.2503C117.457 7.2503 115.853 5.64179 115.853 3.62515Z" fill="#005264" fill-opacity="0.15"/>
<path d="M86.8955 3.62515C86.8955 1.63252 88.5242 0 90.5122 0C92.5001 0 94.1288 1.63252 94.1288 3.62515C94.1288 5.61778 92.5001 7.2503 90.5122 7.2503C88.5003 7.2503 86.8955 5.64179 86.8955 3.62515Z" fill="#005264" fill-opacity="0.15"/>
<path d="M57.9141 3.62515C57.9141 1.63252 59.5428 0 61.5547 0C63.5426 0 65.1713 1.63252 65.1713 3.62515C65.1713 5.61778 63.5426 7.2503 61.5547 7.2503C59.5428 7.2503 57.9141 5.64179 57.9141 3.62515Z" fill="#005264" fill-opacity="0.15"/>
<path d="M28.957 3.62515C28.957 1.63252 30.5857 0 32.5737 0C34.5616 0 36.1903 1.63252 36.1903 3.62515C36.1903 5.61778 34.5616 7.2503 32.5737 7.2503C30.5857 7.2503 28.957 5.64179 28.957 3.62515Z" fill="#005264" fill-opacity="0.15"/>
<path d="M0 3.62515C0 1.63252 1.62869 0 3.61665 0C5.60461 0 7.23329 1.63252 7.23329 3.62515C7.23329 5.61778 5.60461 7.2503 3.61665 7.2503C1.62869 7.2503 0 5.64179 0 3.62515Z" fill="#005264" fill-opacity="0.15"/>
</g>
<defs>
<clipPath id="clip0_92_1015">
<rect width="181" height="101" fill="white"/>
</clipPath>
</defs>
</svg>
