<svg width="32" height="32" viewBox="0 0 32 32" fill="none" xmlns="http://www.w3.org/2000/svg">
<path d="M26.896 8.99998H24.4146L18.3266 15.0853C18.5363 15.6197 18.5556 16.21 18.3812 16.7569C18.2069 17.3039 17.8495 17.7741 17.3692 18.0885C16.889 18.4029 16.3151 18.5424 15.744 18.4835C15.173 18.4245 14.6397 18.1707 14.2338 17.7648C13.8279 17.3589 13.5741 16.8256 13.5152 16.2546C13.4562 15.6836 13.5957 15.1097 13.9101 14.6294C14.2245 14.1491 14.6948 13.7917 15.2417 13.6174C15.7886 13.443 16.3789 13.4623 16.9133 13.672L23 7.58531V5.10398C23.0001 4.77195 23.132 4.45354 23.3666 4.21865L25.6733 1.91198C25.7159 1.86889 25.7695 1.83829 25.8283 1.82348C25.887 1.80867 25.9487 1.81023 26.0066 1.82798C26.1253 1.86265 26.2133 1.96131 26.2373 2.08265L26.8506 5.15065L29.9173 5.76398C30.0373 5.78798 30.136 5.87598 30.1706 5.99465C30.1881 6.05229 30.1897 6.1136 30.1751 6.17206C30.1606 6.23052 30.1305 6.28394 30.088 6.32665L27.78 8.63331C27.6639 8.74953 27.5262 8.84173 27.3745 8.90465C27.2228 8.96756 27.0602 8.99996 26.896 8.99998Z" fill="#2D7588"/>
<path d="M3.5 16C3.5 19.3152 4.81696 22.4946 7.16117 24.8388C9.50537 27.183 12.6848 28.5 16 28.5C17.6415 28.5 19.267 28.1767 20.7835 27.5485C22.3001 26.9203 23.6781 25.9996 24.8388 24.8388C25.9996 23.6781 26.9203 22.3001 27.5485 20.7836C28.1767 19.267 28.5 17.6415 28.5 16C28.5 14.8027 28.332 13.6453 28.0187 12.5507C27.9564 12.2993 27.994 12.0336 28.1237 11.8095C28.2533 11.5853 28.4649 11.4202 28.7138 11.3489C28.9627 11.2775 29.2296 11.3055 29.4583 11.427C29.687 11.5484 29.8597 11.7538 29.94 12C30.3053 13.272 30.5 14.6133 30.5 16C30.5 24.008 24.008 30.5 16 30.5C7.992 30.5 1.5 24.008 1.5 16C1.5 7.99201 7.992 1.50001 16 1.50001C17.3533 1.49867 18.6987 1.68667 20 2.05867C20.1269 2.09427 20.2455 2.15459 20.349 2.23617C20.4525 2.31775 20.5388 2.41898 20.6031 2.53404C20.6673 2.64911 20.7082 2.77573 20.7233 2.90664C20.7384 3.03755 20.7275 3.17016 20.6913 3.29685C20.655 3.42353 20.594 3.5418 20.5119 3.64485C20.4297 3.74789 20.328 3.83369 20.2126 3.8973C20.0972 3.96091 19.9703 4.00108 19.8394 4.0155C19.7084 4.02993 19.5758 4.01832 19.4493 3.98134C18.3276 3.66098 17.1666 3.49897 16 3.50001C12.6848 3.50001 9.50537 4.81697 7.16117 7.16117C4.81696 9.50538 3.5 12.6848 3.5 16Z" fill="#2D7588"/>
<path d="M9.49982 16C9.50354 16.8831 9.68721 17.7562 10.0396 18.5659C10.392 19.3757 10.9058 20.1051 11.5495 20.7097C12.1932 21.3142 12.9534 21.7813 13.7836 22.0822C14.6139 22.3832 15.4967 22.5118 16.3783 22.4602C17.2599 22.4086 18.1217 22.1778 18.9112 21.782C19.7006 21.3862 20.4011 20.8336 20.9698 20.1581C21.5386 19.4825 21.9637 18.6981 22.2192 17.8527C22.4747 17.0074 22.5552 16.1189 22.4558 15.2414C22.4278 15.0636 22.4484 14.8817 22.5154 14.7147C22.5824 14.5477 22.6934 14.402 22.8364 14.2929C22.9795 14.1839 23.1494 14.1156 23.3282 14.0952C23.507 14.0749 23.6879 14.1033 23.8518 14.1774C24.1865 14.3267 24.4118 14.6454 24.4412 15.0107C24.6482 16.7644 24.3037 18.539 23.4557 20.0878C22.6076 21.6367 21.2981 22.8829 19.7091 23.6532C18.1201 24.4235 16.3307 24.6796 14.5894 24.3859C12.8482 24.0923 11.2416 23.2635 9.99315 22.0147C8.74501 20.7673 7.91599 19.1623 7.62105 17.4225C7.32612 15.6827 7.57989 13.8942 8.34718 12.3051C9.11447 10.7161 10.3572 9.40512 11.9031 8.55414C13.449 7.70316 15.2214 7.35433 16.9745 7.55603C17.107 7.56832 17.2358 7.60695 17.3532 7.66965C17.4706 7.73234 17.5743 7.81784 17.6582 7.92114C17.7421 8.02444 17.8046 8.14345 17.8419 8.2712C17.8793 8.39895 17.8907 8.53287 17.8757 8.66511C17.8606 8.79735 17.8192 8.92524 17.7541 9.0413C17.6889 9.15736 17.6012 9.25924 17.4962 9.34097C17.3912 9.42271 17.2709 9.48265 17.1424 9.51729C17.0138 9.55193 16.8797 9.56057 16.7478 9.54269C15.8372 9.43741 14.9146 9.5259 14.0406 9.80234C13.1666 10.0788 12.3609 10.5369 11.6764 11.1467C10.992 11.7565 10.4442 12.5042 10.0691 13.3406C9.69395 14.177 9.49996 15.0833 9.49982 16Z" fill="#2D7588"/>
</svg>
