<svg width="58" height="58" viewBox="0 0 58 58" fill="none" xmlns="http://www.w3.org/2000/svg">
<path fill-rule="evenodd" clip-rule="evenodd" d="M37.6589 3.43167C40.8296 4.49742 42.8958 7.48201 42.8958 11.3946C42.8958 13.8523 41.499 16.1168 39.9403 17.9196C38.338 19.778 36.3128 21.4431 34.539 22.736L34.3142 22.9003C32.5936 24.157 31.1726 25.1962 29 25.1962C26.825 25.1962 25.4088 24.157 23.6882 22.9003L23.461 22.736C21.6872 21.4431 19.662 19.778 18.0597 17.922C16.5058 16.1168 15.1042 13.8523 15.1042 11.3946C15.1042 7.48201 17.1704 4.49984 20.3411 3.43167C23.0477 2.52059 26.1942 3.12234 29 5.16443C31.8057 3.12234 34.9547 2.52059 37.6589 3.43167ZM36.5037 6.86818C34.9281 6.33651 32.5767 6.67968 30.2277 8.84018C29.8932 9.14757 29.4555 9.31815 29.0012 9.31815C28.5469 9.31815 28.1092 9.14757 27.7747 8.84018C25.4233 6.67968 23.0743 6.33651 21.4987 6.86818C19.9858 7.37568 18.7292 8.83534 18.7292 11.3946C18.7292 12.5232 19.4179 13.9442 20.8051 15.5537C22.1487 17.1124 23.9274 18.5914 25.5973 19.807C27.6346 21.2933 28.1179 21.5712 29 21.5712C29.8821 21.5712 30.3654 21.2933 32.4051 19.807C34.0726 18.5914 35.8512 17.1124 37.1949 15.5537C38.5845 13.9442 39.2732 12.5232 39.2732 11.3946C39.2732 8.83293 38.0142 7.37568 36.5037 6.86818ZM20.9863 34.916C25.4958 34.0412 30.3219 34.2393 34.2297 36.569C34.7758 36.8953 35.293 37.3037 35.7401 37.8063C36.6487 38.8262 37.1176 40.0949 37.1393 41.3661C37.6009 41.0688 38.0649 40.7378 38.5337 40.3825L42.9031 37.0838C43.9973 36.2793 45.3198 35.8455 46.6779 35.8455C48.036 35.8455 49.3586 36.2793 50.4528 37.0838C52.4707 38.6063 53.2778 41.3443 51.8302 43.6619C50.8032 45.3101 49.2565 47.589 47.6808 49.0487C46.0858 50.5228 43.8214 51.7626 42.108 52.5915C40.0248 53.5968 37.7773 54.1503 35.5902 54.5055C31.1194 55.2305 26.4697 55.1169 22.0521 54.2083C19.7739 53.7394 17.4542 53.5022 15.1283 53.5002H9.66666C9.18596 53.5002 8.72494 53.3092 8.38503 52.9693C8.04512 52.6294 7.85416 52.1684 7.85416 51.6877C7.85416 51.207 8.04512 50.746 8.38503 50.406C8.72494 50.0661 9.18596 49.8752 9.66666 49.8752H15.1283C17.6948 49.8752 20.2879 50.141 22.7843 50.6582C26.8109 51.4844 30.9537 51.5753 35.0127 50.9264C37.0137 50.6026 38.8842 50.1217 40.5323 49.3266C42.1829 48.5291 44.0389 47.4803 45.2158 46.3879C46.4072 45.2859 47.7388 43.3743 48.7562 41.7455C49.0632 41.2525 49.0197 40.542 48.2681 39.9741C47.803 39.6454 47.2475 39.4688 46.6779 39.4688C46.1084 39.4688 45.5528 39.6454 45.0877 39.9741L40.7208 43.2753C38.976 44.5923 36.83 46.0013 34.1692 46.4242C33.8905 46.4693 33.611 46.5087 33.3307 46.5426C31.6374 46.7379 29.9282 46.7541 28.2315 46.5909C27.9903 46.5743 27.7549 46.5095 27.5391 46.4005C27.3233 46.2915 27.1315 46.1404 26.975 45.9561C26.8185 45.7719 26.7004 45.5582 26.6278 45.3276C26.5551 45.097 26.5293 44.8542 26.5519 44.6135C26.5744 44.3728 26.6449 44.1391 26.7592 43.926C26.8735 43.713 27.0292 43.5249 27.2173 43.373C27.4053 43.221 27.6218 43.1082 27.8541 43.0412C28.0864 42.9742 28.3298 42.9544 28.5698 42.9828C30.0875 43.1254 31.4457 43.094 32.6008 42.9756L32.6733 42.9683C32.8988 42.8284 33.0904 42.6402 33.2343 42.4172C33.3783 42.1943 33.4709 41.9422 33.5056 41.6791C33.5402 41.416 33.5161 41.1485 33.4349 40.8958C33.3536 40.6432 33.2173 40.4118 33.0358 40.2182C32.8433 40.0062 32.6191 39.8252 32.3712 39.6817C29.5172 37.9779 25.7037 37.6952 21.6751 38.4733C17.7401 39.265 14.0098 40.8566 10.7155 43.1496C10.5213 43.2873 10.3018 43.3855 10.0697 43.4384C9.83752 43.4913 9.59722 43.498 9.36249 43.458C9.12776 43.4181 8.90319 43.3323 8.70161 43.2056C8.50004 43.0788 8.3254 42.9137 8.18766 42.7194C8.04993 42.5252 7.95179 42.3057 7.89887 42.0736C7.84595 41.8414 7.83927 41.6011 7.87921 41.3664C7.91916 41.1317 8.00494 40.9071 8.13168 40.7055C8.25841 40.504 8.4236 40.3293 8.61783 40.1916C12.3338 37.6009 16.5445 35.8049 20.9863 34.916Z" fill="#13363F"/>
</svg>
