<svg width="24" height="24" viewBox="0 0 24 24" fill="none" xmlns="http://www.w3.org/2000/svg">
<path d="M22.1834 11.8359L13.1271 2.78437L12.5201 2.17734C12.3818 2.03994 12.1948 1.96283 11.9998 1.96283C11.8048 1.96283 11.6178 2.03994 11.4795 2.17734L1.81621 11.8359C1.67449 11.9771 1.56248 12.1452 1.4868 12.3304C1.41112 12.5156 1.37331 12.714 1.37559 12.9141C1.38496 13.7391 2.07168 14.3977 2.89668 14.3977H3.89277V22.0312H20.1068V14.3977H21.124C21.5248 14.3977 21.9021 14.2406 22.1857 13.957C22.3254 13.8178 22.436 13.6523 22.5113 13.4701C22.5865 13.2878 22.6248 13.0925 22.624 12.8953C22.624 12.4969 22.467 12.1195 22.1834 11.8359ZM13.3123 20.3437H10.6873V15.5625H13.3123V20.3437ZM18.4193 12.7102V20.3437H14.8123V15C14.8123 14.482 14.3928 14.0625 13.8748 14.0625H10.1248C9.60684 14.0625 9.1873 14.482 9.1873 15V20.3437H5.58027V12.7102H3.33027L12.0021 4.04531L12.5436 4.58672L20.6717 12.7102H18.4193Z" fill="#2D7588"/>
</svg>
