<svg width="32" height="33" viewBox="0 0 32 33" fill="none" xmlns="http://www.w3.org/2000/svg">
<g clip-path="url(#clip0_92_1210)">
<path fill-rule="evenodd" clip-rule="evenodd" d="M16.0001 25.8334C16.3538 25.8334 16.6929 25.9738 16.9429 26.2239C17.193 26.4739 17.3335 26.8131 17.3335 27.1667V28.5C17.3335 28.8536 17.193 29.1928 16.9429 29.4428C16.6929 29.6929 16.3538 29.8334 16.0001 29.8334C15.6465 29.8334 15.3074 29.6929 15.0573 29.4428C14.8073 29.1928 14.6668 28.8536 14.6668 28.5V27.1667C14.6668 26.8131 14.8073 26.4739 15.0573 26.2239C15.3074 25.9738 15.6465 25.8334 16.0001 25.8334ZM22.6001 23.1C22.8297 22.8705 23.1352 22.7325 23.4592 22.7122C23.7833 22.6918 24.1036 22.7904 24.3601 22.9894L24.4855 23.1L25.4281 24.0427C25.6673 24.2826 25.8061 24.6046 25.8164 24.9432C25.8268 25.2818 25.7078 25.6116 25.4838 25.8657C25.2598 26.1198 24.9474 26.2791 24.6102 26.3112C24.2729 26.3433 23.9361 26.2459 23.6681 26.0387L23.5428 25.928L22.6001 24.9854C22.3502 24.7353 22.2098 24.3962 22.2098 24.0427C22.2098 23.6891 22.3502 23.3501 22.6001 23.1ZM9.40014 23.1C9.6501 23.3501 9.79052 23.6891 9.79052 24.0427C9.79052 24.3962 9.6501 24.7353 9.40014 24.9854L8.45747 25.928C8.206 26.1709 7.8692 26.3053 7.5196 26.3022C7.17001 26.2992 6.83559 26.159 6.58838 25.9118C6.34117 25.6646 6.20094 25.3301 6.19791 24.9806C6.19487 24.631 6.32926 24.2942 6.57214 24.0427L7.5148 23.1C7.76484 22.8501 8.10392 22.7096 8.45747 22.7096C8.81102 22.7096 9.1501 22.8501 9.40014 23.1ZM16.0001 3.16669C16.3267 3.16673 16.6419 3.28663 16.886 3.50364C17.13 3.72065 17.2859 4.01969 17.3241 4.34402L17.3335 4.50002V5.96669L28.2335 16.868C29.0455 17.6787 28.5308 19.0414 27.4335 19.1587L27.2815 19.1667H22.5335C22.23 20.6474 21.4326 21.9811 20.2719 22.9492C19.1112 23.9173 17.656 24.4625 16.1449 24.4953C14.6338 24.5282 13.1563 24.0468 11.9547 23.13C10.753 22.2132 9.89834 20.9155 9.5308 19.4494L9.4668 19.1667H4.7188C3.5708 19.1667 2.97214 17.8387 3.66414 16.9814L3.7668 16.868L14.6668 5.96669V4.50002C14.6668 4.1464 14.8073 3.80726 15.0573 3.55721C15.3074 3.30716 15.6465 3.16669 16.0001 3.16669ZM19.7735 19.1667H12.2268C12.4956 19.9271 12.9879 20.5885 13.6392 21.0642C14.2904 21.5399 15.0702 21.8077 15.8763 21.8325C16.6824 21.8573 17.4772 21.6379 18.1565 21.2031C18.8358 20.7683 19.3678 20.1384 19.6828 19.396L19.7735 19.1667ZM24.0948 16.5L16.0935 8.49735L16.0001 8.50002L15.9095 8.49735L7.9068 16.5H24.0948Z" fill="#2D7588"/>
</g>
<defs>
<clipPath id="clip0_92_1210">
<rect width="32" height="32" fill="white" transform="translate(0 0.5)"/>
</clipPath>
</defs>
</svg>
