<svg width="32" height="32" viewBox="0 0 32 32" fill="none" xmlns="http://www.w3.org/2000/svg">
<g clip-path="url(#clip0_92_1272)">
<path d="M29 0.749993H3C2.41008 0.74399 1.84187 0.972255 1.42005 1.3847C0.998227 1.79715 0.757253 2.36009 0.75 2.94999V29.055C0.758564 29.644 1.00012 30.2057 1.42179 30.6171C1.84347 31.0284 2.41093 31.256 3 31.25H29C29.59 31.2547 30.1578 31.0256 30.5794 30.6129C31.001 30.2002 31.2421 29.6374 31.25 29.0475V2.94249C31.2395 2.35432 30.9972 1.79406 30.5759 1.38351C30.1546 0.972955 29.5883 0.745288 29 0.749993Z" fill="#0076B2"/>
<path d="M5.26479 12.1825H9.79229V26.75H5.26479V12.1825ZM7.52979 4.9325C8.04907 4.9325 8.55668 5.08651 8.98842 5.37506C9.42015 5.66361 9.7566 6.07373 9.95521 6.55353C10.1538 7.03333 10.2057 7.56126 10.1042 8.07053C10.0027 8.5798 9.75242 9.04752 9.38506 9.41453C9.01769 9.78155 8.54973 10.0314 8.04036 10.1324C7.531 10.2334 7.00312 10.181 6.52351 9.98196C6.0439 9.7829 5.6341 9.44605 5.34596 9.01405C5.05782 8.58204 4.90429 8.07428 4.90479 7.55499C4.90545 6.85923 5.1823 6.1922 5.67451 5.70046C6.16673 5.20871 6.83403 4.93249 7.52979 4.9325ZM12.6323 12.1825H16.9723V14.1825H17.0323C17.6373 13.0375 19.1123 11.83 21.3148 11.83C25.8998 11.82 26.7498 14.8375 26.7498 18.75V26.75H22.2223V19.6625C22.2223 17.975 22.1923 15.8025 19.8698 15.8025C17.5473 15.8025 17.1523 17.6425 17.1523 19.5525V26.75H12.6323V12.1825Z" fill="white"/>
</g>
<defs>
<clipPath id="clip0_92_1272">
<rect width="32" height="32" fill="white"/>
</clipPath>
</defs>
</svg>
