<svg width="25" height="25" viewBox="0 0 25 25" fill="none" xmlns="http://www.w3.org/2000/svg">
<path d="M20.1472 10.5C20.1472 16.5 12.1472 22.5 12.1472 22.5C12.1472 22.5 4.14722 16.5 4.14722 10.5C4.14722 8.37827 4.99007 6.34344 6.49036 4.84315C7.99065 3.34285 10.0255 2.5 12.1472 2.5C14.2689 2.5 16.3038 3.34285 17.8041 4.84315C19.3044 6.34344 20.1472 8.37827 20.1472 10.5Z" stroke="#2D7588" stroke-width="2" stroke-linecap="round" stroke-linejoin="round"/>
<path d="M12.1472 13.5C13.8041 13.5 15.1472 12.1569 15.1472 10.5C15.1472 8.84315 13.8041 7.5 12.1472 7.5C10.4904 7.5 9.14722 8.84315 9.14722 10.5C9.14722 12.1569 10.4904 13.5 12.1472 13.5Z" stroke="#2D7588" stroke-width="2" stroke-linecap="round" stroke-linejoin="round"/>
</svg>
