<svg width="51" height="51" viewBox="0 0 51 51" fill="none" xmlns="http://www.w3.org/2000/svg">
<path d="M25.5 22.3125C24.1604 22.313 22.8658 22.7954 21.8527 23.6718C20.8395 24.5481 20.1756 25.7598 19.9822 27.0853C19.7888 28.4108 20.0789 29.7616 20.7994 30.8909C21.5199 32.0202 22.6227 32.8525 23.9062 33.2357V36.6562C23.9062 37.0789 24.0742 37.4843 24.373 37.7832C24.6719 38.0821 25.0773 38.25 25.5 38.25C25.9227 38.25 26.3281 38.0821 26.627 37.7832C26.9258 37.4843 27.0938 37.0789 27.0938 36.6562V33.2357C28.3773 32.8525 29.4801 32.0202 30.2006 30.8909C30.9211 29.7616 31.2112 28.4108 31.0178 27.0853C30.8244 25.7598 30.1605 24.5481 29.1473 23.6718C28.1342 22.7954 26.8396 22.313 25.5 22.3125ZM25.5 30.2812C25.0272 30.2812 24.565 30.141 24.1718 29.8784C23.7787 29.6157 23.4723 29.2423 23.2913 28.8055C23.1104 28.3686 23.0631 27.888 23.1553 27.4242C23.2476 26.9605 23.4752 26.5345 23.8096 26.2002C24.1439 25.8659 24.5699 25.6382 25.0336 25.5459C25.4973 25.4537 25.978 25.501 26.4149 25.682C26.8517 25.8629 27.225 26.1693 27.4877 26.5625C27.7504 26.9556 27.8906 27.4178 27.8906 27.8906C27.8906 28.5247 27.6388 29.1327 27.1904 29.5811C26.7421 30.0294 26.134 30.2812 25.5 30.2812ZM41.4375 15.9375H35.0625V11.1562C35.0625 8.62012 34.055 6.18786 32.2617 4.39454C30.4684 2.60122 28.0361 1.59375 25.5 1.59375C22.9639 1.59375 20.5316 2.60122 18.7383 4.39454C16.945 6.18786 15.9375 8.62012 15.9375 11.1562V15.9375H9.5625C8.71712 15.9375 7.90637 16.2733 7.3086 16.8711C6.71082 17.4689 6.375 18.2796 6.375 19.125V41.4375C6.375 42.2829 6.71082 43.0936 7.3086 43.6914C7.90637 44.2892 8.71712 44.625 9.5625 44.625H41.4375C42.2829 44.625 43.0936 44.2892 43.6914 43.6914C44.2892 43.0936 44.625 42.2829 44.625 41.4375V19.125C44.625 18.2796 44.2892 17.4689 43.6914 16.8711C43.0936 16.2733 42.2829 15.9375 41.4375 15.9375ZM19.125 11.1562C19.125 9.46549 19.7966 7.84399 20.9922 6.64844C22.1877 5.4529 23.8092 4.78125 25.5 4.78125C27.1908 4.78125 28.8123 5.4529 30.0078 6.64844C31.2033 7.84399 31.875 9.46549 31.875 11.1562V15.9375H19.125V11.1562ZM41.4375 41.4375H9.5625V19.125H41.4375V41.4375Z" fill="#13363F"/>
</svg>
