<svg width="55" height="47" viewBox="0 0 55 47" fill="none" xmlns="http://www.w3.org/2000/svg">
<path d="M13.4261 23.9911L15.5886 15.2772C15.7062 14.813 16.1243 14.4862 16.6013 14.4862C17.0782 14.4862 17.4963 14.813 17.6139 15.2772L21.3314 30.2667L22.6904 24.7821C22.808 24.3179 23.2261 23.9911 23.703 23.9911H29.5634L31.726 15.2772C31.8436 14.813 32.2617 14.4862 32.7387 14.4862C33.2156 14.4862 33.6337 14.813 33.7513 15.2772L37.4688 30.2667L38.8278 24.7821C38.9454 24.3179 39.3635 23.9911 39.8404 23.9911H52.0643C53.3579 21.4286 54.0766 18.8072 54.0766 16.0878C54.0962 8.98849 49.3007 0 40.0691 0C30.8375 0 27.0481 7.54379 27.0481 7.54379C27.0481 7.54379 23.2653 0 14.0271 0C4.78895 0 0 8.98849 0 16.0812C0 18.8007 0.718669 21.422 2.01881 23.9846H13.4261V23.9911ZM36.3712 10.7012C36.3712 10.0017 36.9396 9.43301 37.6387 9.43301H40.6048V6.46518C40.6048 5.76571 41.1732 5.19698 41.8723 5.19698H43.6298C44.3288 5.19698 44.8972 5.76571 44.8972 6.46518V9.43301H47.8634C48.5625 9.43301 49.1309 10.0017 49.1309 10.7012V12.4597C49.1309 13.1591 48.5625 13.7279 47.8634 13.7279H44.8972V16.6957C44.8972 17.3952 44.3288 17.9639 43.6298 17.9639H41.8723C41.1732 17.9639 40.6048 17.3952 40.6048 16.6957V13.7279H37.6387C36.9396 13.7279 36.3712 13.1591 36.3712 12.4597V10.7012Z" fill="url(#paint0_linear_92_1116)"/>
<path d="M40.6703 26.0764L38.4947 34.8492C38.3771 35.3133 37.9589 35.6402 37.482 35.6402C37.0051 35.6402 36.5869 35.3133 36.4693 34.8492L32.7519 19.8597L31.406 25.2855C31.2884 25.7496 30.8703 26.0764 30.3933 26.0764H24.5329L22.3442 34.8492C22.2266 35.3133 21.8085 35.6402 21.3315 35.6402C20.8546 35.6402 20.4365 35.3133 20.3189 34.8492L16.6014 19.8597L15.2555 25.2855C15.1379 25.7496 14.7198 26.0764 14.2429 26.0764H3.20801C7.52002 32.9012 15.7521 39.4056 25.245 46.4068C26.3165 47.1978 27.78 47.1978 28.858 46.4068C38.3509 39.4056 46.583 32.9012 50.895 26.0764H40.6703Z" fill="url(#paint1_linear_92_1116)"/>
<defs>
<linearGradient id="paint0_linear_92_1116" x1="3.56155e-07" y1="15.133" x2="62" y2="30" gradientUnits="userSpaceOnUse">
<stop offset="0.614583" stop-color="#2D7588"/>
<stop offset="1" stop-color="#E6EDED"/>
</linearGradient>
<linearGradient id="paint1_linear_92_1116" x1="3.20781" y1="33.4318" x2="50.8861" y2="33.4318" gradientUnits="userSpaceOnUse">
<stop stop-color="#C4E4EA"/>
<stop offset="0.619792" stop-color="#2D7588"/>
</linearGradient>
</defs>
</svg>
