<svg width="24" height="25" viewBox="0 0 24 25" fill="none" xmlns="http://www.w3.org/2000/svg">
<path d="M15.5569 15.406L15.1019 15.859C15.1019 15.859 14.0189 16.935 11.0639 13.997C8.10886 11.059 9.19186 9.98298 9.19186 9.98298L9.47786 9.69698C10.1849 8.99498 10.2519 7.86698 9.63486 7.04298L8.37486 5.35998C7.61086 4.33998 6.13586 4.20498 5.26086 5.07498L3.69086 6.63498C3.25786 7.06698 2.96786 7.62498 3.00286 8.24498C3.09286 9.83198 3.81086 13.245 7.81486 17.227C12.0619 21.449 16.0469 21.617 17.6759 21.465C18.1919 21.417 18.6399 21.155 19.0009 20.795L20.4209 19.383C21.3809 18.43 21.1109 16.795 19.8829 16.128L17.9729 15.089C17.1669 14.652 16.1869 14.78 15.5569 15.406Z" fill="#2D7588"/>
</svg>
