<svg width="46" height="46" viewBox="0 0 46 46" fill="none" xmlns="http://www.w3.org/2000/svg">
<path d="M22.7335 4.58085C23.6609 3.96284 24.748 3.62766 25.8624 3.61609C26.9768 3.60452 28.0705 3.91706 29.0106 4.51568L36.9724 9.58335H40.2499C40.7583 9.58335 41.2458 9.78528 41.6052 10.1447C41.9647 10.5042 42.1666 10.9917 42.1666 11.5V28.75C42.1666 29.2583 41.9647 29.7459 41.6052 30.1053C41.2458 30.4647 40.7583 30.6667 40.2499 30.6667H37.3366C37.3981 31.6 37.2006 32.5322 36.766 33.3604C36.3314 34.1887 35.6766 34.8808 34.8737 35.3606L25.1121 41.2179C24.5123 41.5775 23.8255 41.7662 23.1262 41.7635C22.4269 41.7608 21.7416 41.5668 21.1446 41.2026C20.4721 41.7967 19.6126 42.1362 18.7156 42.1617C17.8187 42.1873 16.9412 41.8974 16.236 41.3425L6.38434 33.6011C5.69598 33.0605 5.21322 32.3008 5.01624 31.448C4.81925 30.5952 4.91988 29.7006 5.30142 28.9129C4.84373 28.5541 4.4737 28.0958 4.21933 27.5728C3.96497 27.0498 3.83294 26.4758 3.83325 25.8942V11.5C3.83325 10.9917 4.03519 10.5042 4.39463 10.1447C4.75408 9.78528 5.24159 9.58335 5.74992 9.58335H15.2317L22.7335 4.58085ZM7.99817 26.1548L9.3245 24.9953C10.458 24.0038 11.9352 23.4965 13.4387 23.5825C14.9422 23.6685 16.3519 24.341 17.3649 25.4553L22.5438 31.1516C23.3559 32.0449 23.8662 33.1712 24.0025 34.3707C24.1387 35.5703 23.8939 36.7823 23.3028 37.835L32.9033 32.0754C33.1544 31.9244 33.345 31.6906 33.4423 31.4142C33.5395 31.1379 33.5374 30.8362 33.4362 30.5613L24.9511 18.6818C24.7187 18.3562 24.3903 18.1115 24.0119 17.9819C23.6335 17.8523 23.224 17.8444 22.8408 17.9592L18.076 19.3871C17.0817 19.6853 16.0251 19.7088 15.0185 19.4551C14.0119 19.2013 13.0927 18.6798 12.3586 17.9458L11.797 17.3861C11.2871 16.8772 10.9311 16.2347 10.7701 15.5325C10.609 14.8303 10.6494 14.0969 10.8866 13.4167H7.66659V25.8942L7.99817 26.1548ZM26.954 7.75101C26.6403 7.55113 26.2751 7.44687 25.9031 7.45095C25.5311 7.45504 25.1684 7.56729 24.8591 7.77401L14.5091 14.674L15.0688 15.2356C15.3137 15.4803 15.6204 15.654 15.9562 15.7384C16.2919 15.8227 16.6443 15.8146 16.9758 15.7148L21.7388 14.2868C22.888 13.9422 24.1163 13.9657 25.2516 14.3541C26.3868 14.7425 27.3722 15.4763 28.0695 16.4527L35.487 26.8333H38.3333V13.4167H36.9743C36.2451 13.4166 35.531 13.2085 34.9158 12.8168L26.954 7.75101ZM11.8468 27.8779L8.7495 30.5881L18.6012 38.3295L19.9524 35.9682C20.1532 35.6165 20.2374 35.2102 20.193 34.8077C20.1486 34.4052 19.9778 34.0271 19.7052 33.7276L14.5283 28.0313C14.1906 27.66 13.7208 27.436 13.2198 27.4073C12.7188 27.3787 12.2246 27.5476 11.8468 27.8779Z" fill="#13363F"/>
</svg>
