<svg width="25" height="24" viewBox="0 0 25 24" fill="none" xmlns="http://www.w3.org/2000/svg">
<path d="M7.5 7C7.5 6.20435 7.81607 5.44129 8.37868 4.87868C8.94129 4.31607 9.70435 4 10.5 4H15C15.7956 4 16.5587 4.31607 17.1213 4.87868C17.6839 5.44129 18 6.20435 18 7V8H7.5V7ZM2.5 12.5L12.2575 14.9395C12.4165 14.9795 12.5835 14.9795 12.7425 14.9395L22.5 12.5V19C22.5 19.2652 22.3946 19.5196 22.2071 19.7071C22.0196 19.8946 21.7652 20 21.5 20H3.5C3.23478 20 2.98043 19.8946 2.79289 19.7071C2.60536 19.5196 2.5 19.2652 2.5 19V12.5Z" stroke="#F8F8F8" stroke-width="2" stroke-linecap="round" stroke-linejoin="round"/>
<path d="M22.5 13.5V9C22.5 8.73478 22.3946 8.48043 22.2071 8.29289C22.0196 8.10536 21.7652 8 21.5 8H3.5C3.23478 8 2.98043 8.10536 2.79289 8.29289C2.60536 8.48043 2.5 8.73478 2.5 9V13.5" stroke="#F8F8F8" stroke-width="2" stroke-linecap="round" stroke-linejoin="round"/>
<path d="M13.75 11.5C13.75 11.8315 13.6183 12.1495 13.3839 12.3839C13.1495 12.6183 12.8315 12.75 12.5 12.75C12.1685 12.75 11.8505 12.6183 11.6161 12.3839C11.3817 12.1495 11.25 11.8315 11.25 11.5C11.25 11.1685 11.3817 10.8505 11.6161 10.6161C11.8505 10.3817 12.1685 10.25 12.5 10.25C12.8315 10.25 13.1495 10.3817 13.3839 10.6161C13.6183 10.8505 13.75 11.1685 13.75 11.5Z" fill="#1A6F7A"/>
</svg>
