<svg width="32" height="32" viewBox="0 0 32 32" fill="none" xmlns="http://www.w3.org/2000/svg">
<path d="M17.5847 2.90909C23.8313 2.90909 28.7966 7.41818 28.7966 13.0909C28.7966 17.1636 26.2339 20.6545 22.3898 22.2545V29.0909H11.1779V24.7273H9.5762C7.81433 24.7273 6.3728 23.4182 6.3728 21.8182V17.4545H3.97025C3.32957 17.4545 2.84906 16.7273 3.32957 16.2909L6.3728 12.6545C6.69314 7.12727 11.4982 2.90909 17.5847 2.90909ZM17.5847 0C10.2169 0 4.13042 4.94545 3.32957 11.4909L0.766855 14.5455C-0.194165 15.7091 -0.194165 17.1636 0.446514 18.3273C1.08719 19.3455 2.04821 20.0727 3.1694 20.2182V21.8182C3.1694 24.5818 5.25161 26.7636 7.9745 27.4909V32H25.5932V24C29.5975 21.5273 32 17.6 32 13.0909C32 5.81818 25.5932 0 17.5847 0ZM19.1864 18.9091H15.983V17.4545H19.1864V18.9091ZM21.7491 12.3636C21.2686 12.9455 20.7881 13.5273 19.9873 13.9636V16H15.1822V13.9636C12.9398 12.8 12.1389 10.0364 13.4203 8C14.7016 5.96364 17.7449 5.23636 19.9873 6.4C22.2296 7.56364 23.0305 10.3273 21.7491 12.3636Z" fill="#2D7588"/>
</svg>
